<?xml version="1.0" standalone="no"?>
<!DOCTYPE svg PUBLIC "-//W3C//DTD SVG 20010904//EN"
 "http://www.w3.org/TR/2001/REC-SVG-20010904/DTD/svg10.dtd">
<svg version="1.0" xmlns="http://www.w3.org/2000/svg"
 width="1080.000000pt" height="1080.000000pt" viewBox="0 0 1080.000000 1080.000000"
 preserveAspectRatio="xMidYMid meet">
<metadata>
Created by potrace 1.14, written by Peter Selinger 2001-2017
</metadata>
<g transform="translate(0.000000,1080.000000) scale(0.100000,-0.100000)"
fill="#000000" stroke="none">
<path d="M9765 10699 c-4 -5 -10 -7 -14 -5 -4 3 -8 -1 -8 -9 0 -8 5 -15 11
-15 6 0 4 -5 -4 -10 -8 -5 -10 -10 -5 -10 6 0 11 -9 11 -19 0 -11 -4 -17 -8
-15 -4 3 -8 -5 -8 -18 0 -13 -5 -30 -11 -38 -9 -13 -10 -12 -5 2 3 10 1 20 -5
23 -5 4 -9 3 -8 -2 3 -19 -2 -33 -12 -33 -5 0 -8 4 -5 9 4 5 -2 8 -11 7 -13
-2 -18 -12 -18 -34 1 -24 -2 -29 -12 -21 -9 8 -10 4 -3 -21 8 -28 7 -31 -8
-25 -14 5 -15 4 -4 -6 16 -17 15 -32 -2 -26 -10 4 -14 0 -11 -13 3 -14 -1 -17
-12 -13 -11 4 -14 2 -9 -5 4 -7 1 -12 -9 -12 -10 0 -13 5 -9 12 4 7 3 8 -5 4
-9 -6 -9 -11 1 -24 11 -13 11 -15 -2 -11 -8 3 -23 -3 -32 -13 -10 -10 -13 -18
-7 -18 5 0 7 -5 4 -10 -4 -6 -10 -8 -15 -5 -8 5 -34 -52 -31 -67 0 -5 -3 -8
-9 -8 -6 0 -9 -3 -9 -7 3 -20 -2 -34 -10 -29 -5 4 -7 -4 -3 -16 3 -13 1 -19
-5 -15 -6 4 -10 -3 -9 -16 3 -33 -12 -49 -34 -37 -13 7 -21 7 -25 0 -4 -6 -12
-7 -18 -3 -7 4 -5 -2 3 -12 8 -10 10 -16 3 -12 -7 4 -14 -1 -18 -13 -4 -11
-11 -18 -16 -15 -5 4 -9 -6 -9 -22 0 -22 -2 -25 -10 -13 -5 8 -10 12 -11 8 -1
-5 -3 -12 -4 -18 -1 -5 -3 -13 -4 -16 0 -4 -7 -1 -15 5 -11 9 -16 9 -22 0 -5
-8 -3 -9 6 -4 8 5 11 3 8 -6 -3 -8 -10 -13 -16 -12 -6 2 -9 -4 -6 -12 4 -8 -1
-17 -9 -21 -9 -3 -13 -12 -10 -20 3 -8 0 -14 -7 -14 -6 0 -8 -4 -5 -10 3 -5 1
-10 -5 -10 -6 0 -9 -4 -6 -8 2 -4 -5 -14 -17 -22 -21 -12 -21 -12 -7 6 13 17
13 18 0 7 -8 -6 -19 -11 -23 -11 -5 0 -12 -4 -15 -8 -4 -4 -1 -4 6 0 6 4 12 2
12 -5 0 -6 -8 -9 -20 -6 -11 3 -23 0 -27 -5 -4 -7 -1 -8 8 -4 10 6 10 4 -1 -6
-8 -7 -15 -19 -16 -25 -3 -39 -5 -44 -14 -38 -5 3 -10 0 -10 -7 0 -10 -2 -10
-9 0 -11 17 -21 17 -32 0 -6 -9 -9 -10 -9 -1 0 7 -7 10 -15 7 -8 -4 -12 -10
-9 -15 3 -5 0 -9 -6 -9 -6 0 -8 -5 -4 -12 5 -7 2 -9 -9 -5 -9 3 -18 0 -21 -9
-3 -9 -10 -12 -16 -9 -5 3 -10 1 -10 -5 0 -6 -5 -8 -12 -4 -9 5 -9 2 1 -9 11
-13 11 -17 1 -17 -8 0 -11 -3 -7 -6 3 -3 -6 -19 -21 -36 -24 -27 -27 -28 -39
-12 -8 11 -13 13 -13 5 0 -8 -6 -11 -15 -7 -8 3 -15 1 -15 -3 0 -5 -9 -7 -20
-4 -19 5 -25 -5 -21 -31 1 -5 -5 -6 -13 -3 -10 4 -13 1 -9 -8 3 -8 10 -12 17
-8 6 4 4 -1 -4 -12 -8 -10 -15 -21 -15 -24 0 -3 -4 -5 -8 -3 -5 1 -6 -2 -3 -7
9 -14 -14 -25 -27 -12 -7 7 -14 5 -24 -7 -9 -10 -12 -11 -7 -2 7 13 5 13 -9 1
-9 -7 -14 -17 -11 -22 3 -5 0 -8 -7 -7 -7 2 -14 -3 -15 -9 -3 -27 -5 -28 -14
-13 -8 13 -10 12 -10 -3 0 -9 -3 -16 -7 -16 -23 4 -33 -3 -33 -22 0 -11 -4
-17 -10 -14 -9 6 -15 -16 -11 -39 1 -5 -5 -3 -14 4 -9 7 -15 9 -14 4 5 -29 -2
-37 -17 -18 -8 10 -12 13 -9 6 8 -16 -31 -56 -45 -47 -6 3 -10 1 -10 -6 0 -8
-4 -8 -15 1 -13 11 -14 10 -9 -6 4 -10 4 -16 -1 -12 -4 4 -22 -8 -40 -28 -18
-19 -42 -36 -54 -37 -13 -1 -20 -6 -17 -14 3 -8 -2 -13 -14 -13 -13 0 -18 -5
-14 -15 5 -12 2 -14 -12 -8 -17 6 -17 5 -5 -11 12 -15 12 -17 0 -14 -8 2 -13
-4 -13 -14 1 -10 -2 -15 -7 -12 -5 3 -9 0 -9 -6 0 -6 -5 -8 -11 -4 -7 4 -7 -1
1 -16 7 -13 8 -20 2 -16 -6 3 -14 1 -17 -5 -4 -5 -14 -8 -22 -4 -13 4 -13 3
-4 -8 9 -12 6 -14 -21 -11 -23 3 -29 1 -18 -5 8 -6 18 -7 22 -5 4 3 8 3 8 0 0
-3 -10 -10 -21 -17 -17 -9 -20 -8 -14 2 6 8 4 10 -4 5 -7 -5 -10 -15 -6 -23 4
-13 3 -14 -10 -3 -13 11 -14 10 -9 -4 5 -12 2 -15 -12 -9 -12 4 -15 3 -10 -5
4 -7 1 -12 -9 -12 -19 0 -108 -87 -114 -110 -2 -8 -4 -21 -4 -27 0 -7 -13 -18
-29 -25 -16 -8 -26 -18 -23 -26 3 -7 1 -10 -4 -7 -5 3 -17 -5 -27 -17 -10 -15
-14 -17 -11 -6 4 10 1 20 -5 24 -7 5 -8 3 -4 -5 5 -8 0 -14 -14 -18 -16 -4
-18 -8 -8 -14 10 -7 11 -9 0 -9 -7 0 -10 -5 -6 -12 4 -7 3 -8 -4 -4 -7 4 -20
2 -29 -3 -17 -10 -16 -10 2 -11 16 0 17 -2 5 -9 -8 -6 -18 -7 -22 -5 -4 3 -5
-3 -1 -13 6 -16 5 -16 -10 -4 -15 12 -17 11 -17 -3 0 -10 -4 -15 -9 -12 -5 3
-14 -1 -21 -9 -11 -13 -10 -15 6 -9 19 5 19 5 0 -10 -10 -8 -23 -13 -28 -10
-4 3 -11 -3 -14 -13 -3 -10 -10 -26 -15 -36 -5 -10 -7 -22 -4 -27 3 -4 -2 -15
-10 -23 -11 -12 -12 -17 -2 -21 9 -5 9 -7 -1 -12 -6 -3 -10 -10 -6 -15 3 -5 0
-9 -6 -9 -6 0 -8 -5 -4 -11 4 -8 -1 -9 -17 -5 -13 3 -18 3 -11 0 19 -9 14 -27
-5 -20 -10 4 -14 4 -10 0 4 -4 -1 -13 -11 -21 -9 -8 -11 -11 -3 -7 10 5 12 3
7 -5 -5 -7 -14 -10 -21 -7 -10 3 -12 -2 -10 -17 4 -21 4 -21 -10 -3 -11 14
-15 16 -15 5 0 -11 -2 -11 -9 -1 -7 11 -10 10 -15 -3 -3 -9 -4 -21 0 -26 3 -5
-2 -9 -11 -9 -10 0 -13 -5 -9 -12 5 -8 2 -9 -11 -4 -14 5 -16 4 -6 -8 9 -11 8
-15 -4 -20 -9 -3 -13 -2 -10 4 3 6 2 10 -3 10 -5 0 -12 -9 -15 -21 -3 -12 -10
-18 -16 -14 -6 3 -11 -1 -11 -9 0 -9 -7 -16 -15 -16 -8 0 -12 -6 -9 -14 3 -8
0 -17 -5 -21 -6 -3 -9 -11 -6 -16 3 -5 -1 -6 -10 -3 -9 4 -15 3 -14 -2 5 -26
-2 -45 -13 -38 -9 5 -9 2 1 -9 9 -11 10 -17 2 -17 -6 0 -11 -7 -11 -16 0 -8
-4 -12 -10 -9 -5 3 -7 0 -4 -8 3 -8 1 -18 -4 -21 -5 -3 -8 -18 -6 -33 1 -16
-5 -37 -14 -48 -16 -19 -16 -19 1 -6 17 13 17 12 12 -20 -6 -34 -15 -52 -15
-30 0 7 -5 9 -10 6 -6 -4 -8 -11 -5 -16 4 -5 0 -9 -7 -9 -9 0 -9 -3 2 -10 13
-8 13 -10 -2 -10 -11 0 -15 -5 -12 -15 10 -25 -13 -17 -36 13 -12 15 -19 21
-15 15 3 -7 1 -13 -5 -13 -7 0 -10 -7 -6 -15 3 -8 1 -15 -5 -15 -6 0 -7 -6 -2
-12 15 -24 11 -36 -10 -30 -13 3 -18 1 -13 -6 5 -8 2 -10 -9 -6 -11 5 -13 10
-5 19 22 27 -20 26 -47 -1 -7 -6 -9 -15 -6 -18 4 -4 8 -16 10 -27 2 -14 -1
-18 -9 -13 -9 5 -9 2 1 -9 12 -15 11 -17 -5 -17 -16 0 -17 -2 -4 -10 13 -9 13
-12 -3 -21 -15 -9 -16 -13 -5 -27 11 -13 11 -15 -3 -10 -12 5 -15 1 -13 -18 1
-13 -2 -22 -7 -18 -5 3 -7 9 -4 14 3 5 1 12 -5 15 -6 4 -9 1 -8 -7 2 -8 -5
-12 -19 -11 -17 2 -21 -1 -17 -15 4 -10 3 -13 -3 -6 -4 6 -21 13 -36 16 -23 4
-27 2 -22 -11 3 -9 -3 -5 -14 9 -11 13 -17 28 -14 33 3 5 -4 4 -16 -2 -25 -14
-28 -23 -3 -14 14 5 15 3 5 -7 -10 -11 -15 -11 -29 1 -10 8 -15 9 -11 3 8 -13
-19 -27 -34 -18 -5 3 -9 -1 -9 -9 0 -9 -14 -13 -47 -13 -32 1 -47 -3 -46 -11
2 -8 -6 -9 -28 -3 -28 8 -29 7 -17 -7 12 -15 11 -15 -9 -5 -19 11 -21 9 -16
-11 3 -16 2 -18 -5 -9 -7 11 -10 11 -15 -2 -4 -9 -14 -16 -24 -16 -16 0 -16 1
1 13 16 12 15 13 -6 12 -13 -1 -29 -5 -36 -9 -7 -4 -12 -2 -12 6 -1 10 -4 9
-13 -2 -7 -8 -18 -16 -26 -18 -12 -3 -12 -1 0 14 8 10 9 15 2 11 -7 -4 -17 0
-23 10 -9 15 -10 15 -4 -6 4 -17 3 -21 -6 -16 -6 4 -10 18 -7 31 2 13 0 21 -4
18 -5 -3 -9 -13 -9 -22 -1 -12 -5 -10 -15 8 l-13 25 -8 -28 c-4 -20 -9 -25
-15 -16 -4 7 -5 17 -3 21 3 4 0 8 -5 8 -6 0 -11 -8 -11 -17 0 -15 -2 -16 -9
-3 -6 8 -8 17 -6 20 2 4 -2 7 -10 7 -11 0 -12 -4 -4 -13 7 -8 6 -14 -2 -20 -8
-4 -9 -3 -5 4 4 7 1 12 -8 12 -9 0 -16 -6 -16 -12 0 -9 -4 -8 -10 2 -8 13 -10
12 -11 -5 -1 -11 -1 -23 0 -27 1 -10 -32 3 -42 16 -5 6 -6 0 -2 -14 5 -23 5
-23 -8 -7 -16 20 -32 23 -21 5 6 -10 5 -10 -8 -1 -8 7 -18 10 -21 7 -4 -4 -4
4 -2 17 4 23 4 23 -11 4 -8 -11 -24 -20 -37 -20 -12 0 -21 -5 -20 -10 1 -6
-11 -10 -27 -10 -16 -1 -26 3 -24 7 3 5 10 5 16 2 7 -4 8 -2 4 4 -4 6 -13 9
-21 5 -18 -6 -19 8 -2 26 8 10 8 12 0 7 -6 -3 -14 -2 -17 2 -5 8 -24 9 -59 3
-5 0 -5 -7 -1 -13 5 -9 2 -9 -9 1 -11 9 -17 10 -17 2 0 -6 -4 -11 -10 -11 -5
0 -7 8 -4 18 4 12 2 12 -8 -3 -7 -12 -21 -19 -30 -17 -10 2 -18 -2 -18 -9 0
-7 -3 -9 -6 -6 -4 4 -1 14 7 23 13 16 12 16 -8 5 -17 -9 -23 -9 -23 0 0 6 -6
9 -13 6 -8 -3 -14 1 -14 8 0 10 5 11 19 4 12 -6 18 -6 18 1 0 5 -7 10 -16 10
-8 0 -13 4 -10 8 3 5 -1 9 -9 9 -8 0 -12 -4 -9 -9 3 -4 0 -8 -6 -8 -6 0 -8 -5
-4 -12 5 -8 2 -9 -10 -5 -11 4 -15 3 -11 -4 9 -13 -25 -40 -42 -34 -7 2 -13
-1 -13 -7 0 -7 -5 -6 -15 2 -10 9 -15 9 -15 1 0 -6 -6 -10 -12 -8 -7 1 -12 -3
-11 -8 1 -6 -7 -11 -18 -11 -20 0 -24 6 -11 22 4 5 -1 1 -10 -9 -17 -19 -18
-19 -18 -1 0 16 -2 16 -9 4 -6 -8 -7 -18 -4 -24 3 -5 1 -6 -5 -2 -6 4 -9 13
-6 20 3 8 0 17 -6 21 -6 3 -9 1 -8 -6 3 -12 -5 -14 -47 -10 -8 0 -15 9 -16 19
0 14 -2 14 -9 -3 -5 -11 -9 -15 -9 -8 -1 6 -12 10 -26 9 -13 -2 -22 1 -19 5 3
5 0 9 -6 9 -6 0 -9 4 -6 8 3 5 -1 9 -9 9 -8 0 -12 -3 -10 -7 2 -4 -2 -7 -10
-7 -8 0 -12 4 -10 7 3 4 -6 8 -20 8 -15 0 -22 -5 -18 -12 3 -6 0 -6 -8 2 -7 6
-17 12 -22 12 -4 0 -5 -6 -1 -12 4 -7 -2 -5 -13 5 -21 18 -22 18 -33 -3 -9
-17 -14 -19 -26 -9 -8 7 -14 8 -12 3 2 -5 -8 -21 -21 -34 -13 -14 -21 -20 -18
-14 3 6 0 11 -8 11 -8 0 -13 -5 -12 -11 1 -6 -4 -10 -10 -9 -7 2 -13 -2 -13
-7 0 -7 -6 -7 -19 0 -14 7 -22 7 -27 -2 -5 -7 -3 -8 7 -3 8 5 11 4 6 -1 -12
-12 -57 -13 -57 0 0 6 -5 4 -10 -4 -7 -11 -10 -11 -10 -2 0 8 -5 10 -12 5 -19
-12 -56 -11 -52 2 2 5 -8 11 -23 12 -16 1 -45 6 -66 11 -33 9 -36 8 -26 -5 11
-12 9 -12 -17 -1 -16 7 -31 15 -34 18 -11 11 -54 10 -62 -2 -5 -9 -8 -9 -8 -1
0 12 -67 16 -75 3 -3 -4 -15 -6 -27 -2 -16 4 -19 2 -13 -9 7 -11 5 -11 -10 1
-10 8 -16 10 -12 3 5 -7 1 -12 -10 -12 -29 1 -50 -6 -67 -20 -13 -11 -16 -11
-16 0 0 8 -5 6 -13 -6 -11 -14 -16 -15 -22 -5 -6 9 -4 11 6 5 8 -5 10 -4 6 0
-14 16 -36 14 -30 -3 4 -10 2 -13 -5 -8 -7 4 -12 2 -12 -4 0 -11 -40 -7 -62 6
-9 5 -9 2 1 -9 12 -15 12 -17 -3 -11 -9 3 -16 11 -16 17 0 7 -4 7 -12 -1 -15
-15 -28 -15 -28 -1 0 5 5 7 10 4 17 -10 11 12 -7 26 -11 10 -14 10 -9 2 5 -9
0 -13 -14 -13 -13 0 -19 -4 -14 -12 5 -8 0 -9 -15 -5 -18 4 -20 3 -10 -9 10
-12 9 -13 -5 -8 -9 3 -16 10 -16 15 0 5 -12 9 -26 9 -17 0 -23 4 -18 13 5 7 0
6 -11 -3 -10 -8 -16 -10 -12 -4 4 7 0 15 -9 18 -10 4 -13 2 -8 -7 4 -6 -4 -1
-16 12 -14 14 -25 20 -28 13 -2 -6 -10 -8 -18 -5 -7 3 -12 8 -9 12 2 4 -2 8
-10 8 -8 0 -11 -5 -8 -11 4 -6 -1 -5 -10 2 -9 8 -21 11 -27 7 -5 -3 -10 1 -10
10 0 10 -5 13 -12 9 -7 -5 -9 -2 -5 8 6 17 -8 19 -32 4 -10 -6 -12 -5 -7 2 5
8 -2 12 -19 12 -18 0 -24 4 -19 13 6 10 4 10 -7 0 -17 -17 -31 -16 -55 3 -10
8 -13 12 -5 8 9 -4 12 -3 8 3 -4 6 -19 13 -34 16 -26 5 -27 4 -8 -10 20 -14
20 -15 0 -11 -30 5 -54 29 -50 49 2 11 -1 19 -7 19 -7 0 -6 6 2 15 11 14 7 19
-12 16 -4 0 -5 8 -3 19 2 11 -1 20 -7 20 -6 0 -8 3 -5 7 4 3 2 12 -5 20 -9 11
-7 12 8 7 14 -6 13 -2 -6 15 -14 12 -19 20 -13 16 7 -3 13 -2 13 3 0 13 -27
23 -45 16 -10 -4 -13 0 -10 15 2 13 0 19 -7 15 -5 -4 -14 0 -19 7 -4 7 -4 16
1 19 4 3 2 16 -7 30 -8 15 -12 17 -8 6 5 -16 3 -17 -10 -6 -12 10 -15 10 -15
-4 0 -14 -4 -15 -20 -6 -11 6 -20 18 -21 28 0 10 -3 12 -6 5 -2 -7 -11 -13
-19 -13 -9 0 -13 -4 -10 -9 4 -5 -5 -4 -19 2 -14 7 -25 15 -25 20 0 11 14 8
30 -5 12 -11 12 -10 1 5 -7 9 -22 17 -32 17 -11 0 -19 7 -19 16 0 8 -4 13 -10
9 -5 -3 -7 -12 -3 -20 3 -8 0 -15 -7 -15 -6 0 -8 -4 -5 -10 3 -5 1 -10 -4 -10
-6 0 -11 5 -11 12 0 9 -3 9 -12 0 -15 -15 -32 -16 -23 -2 3 6 -2 10 -12 10
-14 0 -15 2 -5 9 10 6 9 10 -7 14 -12 3 -21 12 -21 21 0 9 -4 16 -10 16 -11 0
-50 36 -50 46 0 4 -9 15 -21 25 -11 10 -18 23 -14 29 4 7 -1 14 -13 17 -14 3
-18 10 -14 26 5 19 3 20 -10 9 -14 -11 -16 -10 -11 9 4 15 3 20 -5 15 -8 -5
-10 -2 -6 8 4 11 0 16 -10 16 -9 0 -16 7 -16 16 0 11 -5 14 -16 10 -14 -5 -15
-4 -5 7 9 11 7 17 -6 28 -17 13 -17 13 -3 -6 14 -19 14 -19 -3 -6 -10 8 -15
21 -13 28 8 21 -38 85 -51 72 -7 -7 -14 -1 -21 20 -6 17 -18 31 -26 31 -9 0
-13 7 -11 20 2 11 1 19 -3 19 -20 -3 -25 2 -12 11 13 8 12 10 -3 10 -10 0 -15
5 -12 10 3 6 -2 10 -11 10 -10 0 -15 3 -11 6 3 3 -5 17 -19 31 -13 13 -22 29
-19 34 4 5 1 9 -5 9 -6 0 -8 5 -5 10 3 6 1 10 -4 10 -6 0 -11 5 -11 11 0 5 4
7 10 4 18 -11 11 4 -13 26 -12 12 -16 18 -8 14 10 -6 12 -4 7 4 -6 8 -11 9
-20 2 -10 -8 -18 -5 -32 12 l-19 22 23 -19 c12 -11 22 -16 22 -11 0 17 -35 33
-51 24 -14 -7 -17 -4 -15 14 2 18 -2 22 -23 22 -20 0 -26 5 -24 20 1 20 1 20
-13 1 -13 -19 -14 -19 -14 5 0 13 -3 19 -8 13 -4 -6 -17 -14 -29 -18 -22 -7
-28 1 -24 27 0 4 -2 6 -6 6 -21 -3 -33 3 -33 17 0 8 -4 12 -10 9 -5 -3 -10 -1
-10 4 0 6 -7 11 -16 11 -8 0 -13 3 -11 8 3 4 -1 13 -9 20 -9 8 -14 9 -14 2 0
-7 -5 -6 -14 2 -8 7 -12 16 -9 21 2 4 -1 7 -7 7 -6 0 -8 5 -5 10 3 6 -3 10
-14 10 -15 0 -21 6 -21 21 0 19 -2 20 -17 8 -10 -7 -15 -10 -11 -5 4 5 0 15
-8 23 -8 8 -11 19 -8 25 4 7 2 8 -4 4 -6 -4 -8 -14 -5 -23 5 -12 2 -12 -15 3
-23 19 -29 30 -13 19 5 -3 13 -1 16 5 4 6 3 10 -2 9 -19 -3 -33 2 -33 12 0 5
5 7 10 4 6 -3 10 -1 10 4 0 6 -10 11 -21 11 -18 0 -20 2 -9 16 8 8 9 14 4 13
-18 -3 -37 1 -31 8 4 3 1 13 -6 21 -8 11 -8 14 0 9 6 -4 15 -2 19 4 4 8 3 9
-4 5 -7 -4 -12 -2 -12 4 0 6 -4 8 -10 5 -5 -3 -10 1 -10 10 0 9 -4 13 -10 10
-5 -3 -10 3 -10 14 0 11 -4 23 -10 26 -5 3 -8 0 -7 -7 2 -7 2 -10 0 -5 -3 4
-8 5 -12 3 -4 -3 -7 4 -7 14 0 10 5 16 10 13 5 -3 6 -1 2 5 -4 7 -14 12 -21
12 -8 0 -17 11 -21 25 -4 14 -9 24 -11 21 -8 -8 -31 18 -25 28 3 5 0 6 -6 2
-6 -3 -16 2 -22 11 -10 16 -11 15 -6 -7 l5 -25 -18 22 c-10 12 -22 19 -26 15
-5 -4 -5 2 -1 12 6 17 5 17 -10 5 -15 -12 -16 -11 -10 9 6 17 4 21 -8 16 -11
-4 -16 -1 -16 10 0 9 -8 16 -20 16 -11 0 -20 5 -20 11 0 5 5 7 12 3 7 -4 8 -3
4 5 -4 6 -11 9 -16 6 -13 -8 -40 6 -40 21 0 8 -5 14 -11 14 -5 0 -7 5 -4 10 3
6 -2 10 -12 10 -15 0 -16 2 -3 10 13 8 12 10 -3 10 -10 0 -15 4 -12 10 3 5 -1
20 -9 32 -9 12 -16 18 -16 12 0 -5 3 -14 8 -19 4 -6 -3 -1 -14 10 -12 11 -19
23 -17 28 2 4 -5 7 -17 7 -12 0 -18 5 -15 10 6 9 -8 15 -29 11 -5 -1 -6 4 -3
12 4 10 -2 13 -19 11 -13 -1 -22 2 -19 7 3 4 -3 14 -14 20 -11 7 -17 19 -13
28 4 10 1 13 -11 8 -9 -3 -19 -1 -23 5 -5 7 -2 8 6 3 9 -5 11 -4 6 4 -4 6 -11
9 -16 6 -12 -7 -41 6 -34 16 3 5 -20 7 -51 4 -36 -3 -54 -1 -50 5 3 6 2 10 -4
10 -5 0 -12 8 -15 18 -3 10 -15 18 -27 19 -12 1 -27 10 -34 20 -7 10 -17 15
-20 11 -10 -10 -38 20 -30 32 3 5 1 10 -5 10 -6 0 -9 3 -7 8 3 4 -9 23 -25 42
-17 19 -28 29 -24 23 4 -7 2 -13 -3 -13 -6 0 -11 7 -11 15 0 8 -6 15 -14 15
-8 0 -13 6 -12 13 0 6 -3 13 -8 14 -5 1 -13 7 -17 15 -7 10 -9 9 -9 -4 0 -10
-5 -18 -10 -18 -6 0 -9 3 -9 8 1 4 1 16 -1 27 l-1 20 -9 -20 c-8 -18 -9 -18
-9 -2 -1 11 -5 15 -13 11 -8 -5 -9 -2 -5 9 3 9 1 19 -5 23 -7 4 -8 3 -4 -4 4
-7 2 -12 -3 -12 -6 0 -11 6 -11 14 0 8 -6 16 -14 19 -9 4 -12 14 -9 28 5 17 3
20 -7 14 -10 -6 -12 -4 -7 9 4 10 3 15 -3 11 -5 -3 -15 5 -21 19 -8 16 -17 22
-28 18 -14 -5 -14 -4 -2 11 12 15 12 17 -4 11 -12 -5 -16 -4 -12 3 4 6 0 16
-8 23 -13 11 -15 10 -10 -6 3 -10 -1 -7 -8 8 -10 23 -14 25 -22 12 -9 -13 -12
-13 -30 4 -11 10 -26 17 -33 14 -8 -2 -10 2 -6 13 4 9 3 15 -2 14 -5 -1 -16
-1 -24 0 -13 1 -13 2 0 11 10 6 11 10 3 10 -7 0 -13 5 -13 11 0 5 6 7 13 3 9
-5 9 -4 0 6 -6 7 -9 20 -6 29 4 13 3 14 -5 1 -6 -8 -9 -17 -6 -21 2 -4 0 -10
-5 -14 -6 -3 -8 3 -6 15 2 11 0 22 -6 25 -5 4 -9 0 -9 -7 0 -10 -3 -9 -9 1 -8
12 -12 12 -25 2 -8 -7 -19 -10 -25 -7 -5 4 -17 -1 -25 -10 -10 -10 -16 -11
-16 -3 0 9 -4 8 -15 -1 -12 -10 -16 -8 -24 11 l-10 24 -1 -25 c-1 -22 -2 -23
-9 -6 -7 18 -8 18 -14 2 -4 -9 -12 -14 -17 -11 -6 4 -17 2 -24 -4 -9 -8 -13
-7 -13 4 0 8 4 12 9 9 4 -3 5 2 2 11 -6 14 -8 14 -21 -2 -8 -10 -12 -13 -9 -8
2 6 -4 11 -15 11 -10 0 -19 -5 -20 -11 0 -5 -4 -1 -9 10 l-9 20 -1 -20 c-1
-19 -1 -19 -14 -2 -12 16 -14 16 -20 2 -4 -11 -2 -14 6 -9 6 4 8 3 5 -3 -7
-11 -36 -11 -55 0 -8 6 -10 3 -5 -9 4 -12 3 -15 -6 -10 -6 4 -11 4 -10 -1 3
-19 -2 -33 -12 -33 -5 0 -7 5 -3 12 5 7 3 8 -5 4 -7 -5 -10 -11 -7 -14 3 -3
-1 -14 -11 -24 -13 -14 -13 -18 -2 -18 11 0 12 -2 1 -9 -16 -10 -18 -21 -5
-30 5 -3 0 -15 -11 -25 -19 -19 -19 -19 -13 0 7 18 6 18 -9 -1 -8 -11 -20 -19
-25 -17 -6 1 -8 -2 -4 -7 3 -6 13 -8 23 -5 14 5 14 4 2 -4 -8 -6 -18 -8 -22
-6 -5 3 -12 -5 -17 -18 -9 -21 -10 -21 -11 -3 -1 11 -4 14 -7 8 -2 -7 -12 -13
-21 -13 -15 0 -15 -2 -2 -10 13 -9 13 -10 0 -10 -13 0 -13 -1 0 -10 13 -8 12
-10 -4 -10 -15 0 -16 -3 -6 -15 7 -9 8 -15 2 -15 -12 0 -10 -29 4 -38 5 -4 11
-16 12 -27 4 -17 1 -17 -18 5 l-21 25 13 -25 c7 -14 18 -28 23 -32 6 -5 5 -8
-3 -8 -7 0 -10 -4 -7 -10 3 -5 1 -10 -6 -10 -10 0 -10 -3 -1 -12 9 -9 7 -15
-6 -25 -9 -8 -11 -12 -4 -8 13 7 17 -7 5 -19 -12 -12 -12 -36 0 -36 7 0 5 -5
-3 -10 -8 -5 -10 -10 -4 -10 6 0 11 -7 11 -15 0 -8 -4 -15 -8 -15 -4 0 -10 -7
-13 -16 -6 -15 -4 -15 10 -3 16 13 16 12 5 -9 -7 -13 -10 -30 -7 -37 3 -8 0
-17 -6 -21 -7 -5 -8 -2 -3 7 5 8 4 10 0 6 -13 -11 -15 -38 -3 -31 6 4 5 -2 -1
-15 -9 -16 -9 -21 1 -21 9 0 9 -3 2 -8 -19 -13 -23 -39 -8 -61 14 -19 14 -22
0 -27 -12 -5 -13 -10 -5 -26 7 -13 7 -18 1 -14 -6 3 -13 2 -17 -4 -3 -5 -1
-10 5 -10 6 0 8 -5 5 -10 -4 -6 -12 -7 -18 -4 -8 5 -8 3 0 -7 15 -15 17 -33 4
-25 -5 4 -7 -3 -4 -14 3 -12 0 -20 -6 -20 -7 0 -9 -5 -6 -10 4 -6 11 -7 17 -4
5 4 2 -6 -8 -22 -23 -34 -22 -27 -4 -49 12 -15 12 -17 1 -10 -11 6 -13 4 -8
-8 3 -10 2 -17 -3 -17 -6 0 -10 -5 -10 -11 0 -5 4 -8 9 -5 5 3 12 -1 15 -10 4
-10 2 -13 -6 -8 -7 5 -9 0 -6 -14 5 -16 2 -22 -10 -23 -14 0 -13 -2 3 -9 11
-5 16 -9 10 -9 -6 -1 -9 -27 -7 -63 3 -70 3 -82 0 -101 -1 -7 2 -25 6 -41 5
-19 3 -26 -5 -21 -8 6 -8 2 0 -12 6 -11 7 -23 4 -27 -3 -3 -1 -6 6 -6 7 0 11
-6 8 -14 -3 -8 -3 -17 1 -21 4 -3 7 -28 8 -56 0 -27 4 -52 7 -56 4 -3 2 -12
-4 -20 -8 -9 -8 -13 -1 -13 6 0 9 -9 7 -19 -2 -11 4 -26 13 -33 16 -12 16 -11
2 7 -12 17 -12 18 0 7 9 -7 13 -26 11 -48 -2 -28 0 -34 11 -28 10 6 10 4 -1
-9 -10 -13 -10 -17 -1 -17 7 0 10 -8 7 -20 -3 -11 -1 -20 4 -20 4 0 5 -7 2
-17 -4 -10 -2 -14 4 -10 6 4 13 0 17 -8 3 -8 0 -15 -7 -15 -8 0 -9 -2 -1 -8 6
-4 10 -15 8 -24 -1 -10 2 -18 7 -18 6 0 8 -4 4 -9 -3 -5 0 -13 6 -17 8 -5 8
-8 -1 -14 -8 -5 -7 -11 4 -23 17 -16 22 -32 8 -23 -5 3 -9 -1 -9 -8 0 -8 6
-12 14 -9 9 4 11 0 6 -13 -4 -10 -2 -15 3 -11 15 9 34 -27 23 -44 -13 -21 -11
-33 4 -21 10 9 13 3 11 -30 -1 -27 1 -36 7 -27 7 11 9 10 9 -4 0 -10 3 -16 8
-14 4 3 17 -11 29 -30 13 -19 17 -31 10 -28 -6 4 -4 0 6 -8 10 -8 17 -21 15
-29 -1 -7 1 -14 5 -15 16 -3 35 -37 29 -52 -4 -10 -1 -12 8 -6 10 6 12 4 7 -9
-4 -9 -3 -14 2 -11 5 3 12 1 15 -4 3 -5 -1 -12 -9 -15 -15 -6 -12 -47 5 -71 4
-5 8 -17 8 -25 4 -69 6 -79 16 -73 6 3 5 0 -2 -8 -6 -7 -12 -18 -12 -24 0 -5
5 -3 10 5 7 11 10 4 10 -27 0 -28 5 -43 13 -43 9 0 9 -2 -1 -9 -8 -4 -14 -12
-14 -16 0 -4 6 -12 14 -16 10 -7 10 -9 0 -9 -7 0 -10 -5 -6 -12 4 -6 3 -8 -4
-4 -6 3 -14 1 -18 -5 -4 -7 -3 -9 2 -6 6 3 16 2 24 -4 13 -7 13 -9 0 -9 -13 0
-13 -2 -1 -9 11 -7 12 -13 4 -23 -13 -15 8 -53 22 -40 4 4 4 -3 1 -15 -5 -15
0 -28 16 -43 13 -12 19 -21 13 -20 -22 5 -29 -1 -15 -10 10 -6 11 -10 3 -10
-7 0 -13 -5 -13 -11 0 -5 4 -8 9 -5 5 3 11 -3 14 -14 3 -11 1 -23 -4 -26 -6
-4 -6 -11 0 -18 6 -7 9 -16 6 -19 -3 -4 -2 -5 1 -3 3 3 16 -6 28 -18 11 -13
28 -21 36 -19 8 2 4 -3 -10 -12 l-25 -16 24 7 c20 5 23 3 18 -10 -4 -10 -3
-15 2 -12 14 9 21 -20 8 -33 -8 -8 -6 -11 9 -11 14 0 16 -3 6 -9 -11 -7 -11
-11 2 -24 12 -11 13 -16 4 -19 -8 -3 -3 -14 14 -30 15 -14 25 -28 21 -31 -3
-4 -1 -7 6 -7 9 0 12 -9 9 -25 -3 -13 -1 -22 3 -19 5 3 13 -6 19 -21 5 -14 17
-28 25 -31 8 -4 15 -12 15 -19 0 -8 5 -17 12 -21 7 -5 8 -3 3 6 -6 9 -4 11 4
6 7 -5 10 -14 7 -22 -3 -8 1 -14 10 -14 8 0 12 -4 9 -10 -3 -5 0 -10 7 -10 9
0 9 -3 -2 -10 -12 -8 -10 -10 10 -10 20 0 22 -2 10 -10 -12 -8 -12 -10 5 -10
17 0 17 -2 5 -10 -12 -8 -12 -10 5 -10 17 0 17 -2 5 -10 -8 -5 -10 -10 -5 -10
6 0 11 -9 11 -20 0 -13 -7 -20 -21 -20 -15 0 -16 -3 -7 -9 10 -6 8 -10 -8 -14
-19 -5 -20 -8 -8 -26 10 -17 10 -25 0 -42 -8 -12 -9 -18 -3 -14 14 8 10 -37
-4 -47 -6 -5 -4 -12 5 -18 13 -9 13 -10 0 -10 -12 0 -13 -2 -1 -9 11 -7 11 -9
0 -14 -10 -4 -10 -6 -1 -6 6 -1 12 -6 12 -12 0 -5 -4 -7 -10 -4 -6 3 -7 -1 -4
-10 4 -8 1 -22 -6 -30 -11 -13 -10 -14 6 -8 16 6 17 4 6 -9 -12 -15 -12 -51 1
-64 4 -4 2 -13 -4 -20 -7 -8 -7 -14 1 -19 7 -4 7 -13 -1 -27 -6 -11 -7 -18 -1
-14 6 3 10 -11 10 -34 1 -22 4 -50 7 -61 5 -14 3 -19 -3 -15 -6 3 -14 2 -17
-4 -4 -6 -3 -10 2 -9 4 1 14 1 22 0 11 -1 11 -4 0 -18 -10 -11 -10 -14 -1 -9
15 9 16 -6 0 -22 -9 -9 -9 -12 1 -12 11 0 11 -3 1 -15 -10 -12 -10 -15 0 -15
10 0 10 -3 0 -15 -10 -12 -10 -15 0 -15 10 0 10 -3 0 -15 -10 -12 -10 -15 0
-15 9 0 9 -4 -1 -17 -10 -11 -10 -14 -1 -9 15 9 15 1 1 -26 -9 -16 -8 -19 3
-12 11 6 11 5 -1 -9 -7 -9 -9 -17 -4 -17 6 0 9 -11 8 -25 -2 -14 1 -25 6 -25
5 0 9 -5 9 -11 0 -5 -5 -7 -10 -4 -18 11 -10 -4 15 -29 26 -26 33 -42 13 -30
-7 4 -8 3 -4 -4 4 -6 13 -9 21 -5 10 3 15 -1 15 -12 0 -10 -5 -13 -12 -9 -7 4
-8 3 -4 -4 4 -6 13 -9 20 -6 25 10 43 -22 39 -68 -3 -23 -9 -48 -14 -54 -9
-11 -5 -52 7 -63 4 -3 4 3 1 14 -7 20 -7 20 8 1 8 -11 15 -23 15 -28 0 -4 7
-8 16 -8 8 0 12 -4 9 -10 -3 -5 -2 -10 3 -10 5 0 9 -20 8 -44 0 -26 -4 -42
-10 -39 -5 4 -7 -1 -2 -12 6 -16 4 -16 -11 -4 -10 7 -15 10 -11 5 4 -5 3 -17
-3 -27 -7 -15 -6 -19 6 -19 8 0 15 -3 15 -8 0 -4 10 -12 22 -17 11 -6 25 -20
29 -33 6 -15 5 -21 -1 -17 -6 3 -10 1 -10 -5 0 -6 -4 -8 -10 -5 -5 3 -10 -1
-10 -10 0 -9 -5 -13 -10 -10 -6 4 -1 -10 10 -30 20 -36 28 -63 10 -35 -8 12
-10 10 -11 -10 0 -14 -2 -33 -4 -42 -3 -17 8 -22 42 -21 7 1 10 -3 7 -8 -3 -5
3 -9 14 -9 23 0 47 -46 30 -56 -6 -4 -8 -3 -4 4 3 6 2 13 -3 16 -5 4 -8 -2 -6
-11 2 -10 4 -21 4 -25 1 -5 9 -8 19 -9 14 0 14 -2 -3 -9 -19 -8 -19 -9 2 -9
12 -1 25 -6 29 -13 4 -6 3 -8 -3 -5 -6 4 -8 -3 -6 -16 3 -13 14 -29 25 -36 14
-9 18 -9 13 -1 -5 8 -1 11 9 8 10 -1 17 -7 17 -13 1 -5 5 -15 10 -22 7 -8 4
-10 -13 -7 l-23 5 23 -11 c15 -6 21 -14 16 -22 -6 -9 -3 -9 9 1 11 9 17 10 18
2 4 -32 6 -36 16 -34 7 2 10 -5 8 -15 -1 -9 3 -23 11 -30 8 -7 14 -9 14 -4 0
5 13 8 29 8 17 0 28 -3 25 -8 -3 -4 2 -8 11 -8 9 0 13 -4 10 -10 -9 -14 8 -12
24 3 11 10 11 8 1 -13 -12 -22 -12 -24 2 -12 13 10 17 10 22 -3 3 -9 2 -14 -2
-11 -5 3 -9 -1 -9 -8 0 -8 7 -12 15 -8 9 3 13 1 9 -4 -3 -6 10 -11 31 -12 20
-1 54 -3 74 -3 21 -1 35 -6 32 -11 -3 -4 -10 -6 -15 -3 -5 4 -9 2 -9 -3 0 -6
7 -13 16 -16 8 -3 12 -2 9 4 -11 18 6 10 30 -14 22 -22 22 -25 7 -31 -16 -6
-16 -7 0 -19 14 -10 15 -15 5 -26 -10 -10 -9 -11 2 -5 11 6 13 4 8 -9 -5 -13
-1 -19 12 -23 12 -3 17 -11 14 -22 -3 -12 2 -20 17 -24 19 -5 20 -8 10 -27 -8
-15 -8 -20 -1 -16 6 4 11 2 11 -3 0 -6 -6 -11 -12 -11 -10 0 -10 -2 0 -9 7 -4
14 -17 15 -29 0 -11 5 -18 10 -15 5 3 7 0 5 -8 -3 -8 2 -23 11 -33 9 -11 10
-16 4 -12 -7 4 -13 2 -13 -3 0 -6 5 -11 11 -11 8 0 8 -5 -1 -15 -10 -12 -9
-16 5 -21 13 -5 14 -9 3 -15 -10 -7 -10 -9 2 -10 10 0 8 -3 -5 -9 -17 -7 -17
-9 -2 -9 9 -1 17 -6 17 -12 0 -5 -5 -7 -12 -3 -7 4 -8 3 -4 -4 12 -20 15 -51
5 -57 -5 -4 -6 -12 -2 -18 12 -19 14 -49 4 -42 -5 3 -13 1 -16 -5 -4 -6 -3 -9
2 -8 11 4 13 -5 13 -48 0 -19 -4 -33 -8 -30 -5 3 -9 -1 -9 -9 0 -8 5 -11 11
-8 6 3 5 0 -1 -8 -15 -15 -17 -33 -4 -25 5 4 4 -5 -2 -19 -7 -14 -17 -25 -24
-25 -6 0 -15 -5 -18 -10 -4 -6 -3 -10 2 -9 22 4 24 -3 8 -21 -14 -15 -15 -20
-4 -20 12 0 12 -2 0 -9 -8 -5 -11 -16 -8 -26 4 -9 3 -14 -2 -11 -5 3 -12 -1
-15 -10 -3 -8 -2 -13 2 -10 4 2 8 -5 9 -17 0 -12 -1 -16 -4 -9 -3 6 -9 12 -14
12 -4 0 -6 -7 -3 -15 4 -9 0 -15 -7 -15 -11 0 -11 -3 1 -10 13 -9 13 -10 0
-10 -13 0 -13 -1 0 -10 13 -9 13 -10 0 -10 -8 0 -24 -8 -35 -17 -16 -13 -17
-15 -2 -10 9 4 17 2 17 -3 0 -6 -8 -10 -17 -11 -11 0 -13 -3 -5 -6 6 -2 12 -9
12 -14 0 -4 -7 -6 -15 -3 -20 8 -19 -1 2 -22 16 -16 16 -16 -7 -10 -23 6 -23
6 -8 -7 22 -17 24 -31 4 -24 -11 4 -13 -1 -10 -19 2 -13 0 -24 -6 -24 -6 0 -9
-4 -6 -9 3 -5 -2 -12 -11 -16 -16 -6 -15 -8 7 -26 14 -12 19 -18 13 -14 -7 3
-13 1 -13 -4 0 -6 4 -11 8 -11 5 0 8 -19 7 -42 0 -24 3 -51 8 -62 6 -13 5 -21
-4 -27 -10 -6 -10 -9 -2 -9 6 0 10 -9 8 -20 -3 -13 2 -20 12 -20 11 0 13 -4 6
-12 -13 -18 -15 -71 -3 -63 6 3 10 -3 10 -14 0 -11 9 -22 20 -26 11 -3 20 -11
20 -16 0 -6 -4 -7 -10 -4 -6 4 -7 -1 -3 -11 4 -11 8 -13 11 -6 7 21 25 13 19
-8 -3 -11 -1 -18 4 -15 4 3 15 -8 24 -26 9 -17 12 -28 6 -25 -20 13 9 -47 29
-61 11 -8 20 -22 20 -32 0 -23 19 -41 45 -41 16 0 17 -2 5 -10 -13 -9 -13 -10
0 -10 13 0 13 -1 0 -10 -13 -8 -12 -10 4 -10 12 0 16 -5 12 -16 -3 -8 -2 -12
4 -9 6 3 10 -1 10 -10 0 -10 6 -15 13 -12 14 5 15 -41 2 -64 -6 -8 -4 -10 4
-5 8 5 14 0 18 -14 3 -13 11 -19 20 -16 9 4 11 1 7 -5 -4 -7 4 -21 17 -31 13
-11 17 -16 9 -12 -13 7 -13 6 -1 -10 13 -15 13 -19 0 -28 -11 -7 -9 -9 8 -5
15 3 20 1 17 -8 -3 -7 0 -16 5 -20 6 -3 9 -11 6 -16 -4 -5 2 -6 11 -2 13 5 16
3 11 -10 -3 -9 -1 -19 5 -23 7 -5 8 -2 3 6 -5 9 -4 11 4 6 9 -6 9 -11 -1 -24
-8 -10 -9 -13 -1 -9 15 9 43 -19 43 -44 0 -10 6 -19 14 -19 9 0 12 -7 9 -20
-3 -12 0 -20 6 -20 7 0 9 5 5 12 -4 7 -3 8 4 4 14 -9 3 -38 -12 -30 -6 3 -1
-3 11 -14 17 -15 19 -22 10 -32 -9 -10 -9 -11 1 -6 7 4 12 1 12 -8 0 -9 4 -16
10 -16 5 0 7 -7 4 -15 -4 -9 0 -15 9 -15 24 0 39 -24 24 -40 -10 -10 -9 -12 6
-7 12 5 16 3 11 -4 -4 -6 -1 -15 7 -19 10 -7 10 -11 -1 -24 -11 -14 -10 -16 5
-10 12 5 16 4 11 -4 -3 -6 -2 -13 4 -17 5 -3 10 -11 10 -16 0 -6 -4 -8 -9 -5
-10 7 12 -60 24 -71 4 -5 5 -2 1 5 -4 6 -2 12 3 12 11 0 15 -15 11 -35 -1 -5
2 -7 6 -3 4 4 13 3 21 -3 10 -9 13 -8 13 1 0 8 3 10 6 7 4 -4 1 -14 -7 -24 -8
-9 -9 -14 -2 -10 19 12 45 -4 40 -24 -3 -11 -1 -21 3 -24 5 -3 7 -19 5 -35 -3
-22 3 -35 23 -52 15 -13 27 -30 27 -38 0 -17 -27 -49 -36 -44 -4 2 -17 -5 -29
-16 -13 -11 -18 -20 -12 -20 7 0 12 -9 12 -20 0 -11 -3 -20 -8 -20 -4 0 -8
-18 -9 -41 -1 -22 -7 -46 -13 -53 -5 -8 -7 -22 -3 -31 4 -13 3 -16 -5 -11 -7
4 -12 2 -12 -4 0 -6 -5 -8 -12 -4 -7 5 -8 3 -2 -7 13 -21 14 -38 2 -46 -7 -3
-8 -1 -4 5 4 7 2 12 -3 12 -20 0 -11 -20 11 -30 18 -7 19 -9 6 -9 -10 -1 -18
-5 -18 -10 0 -4 10 -8 22 -7 11 0 23 -6 25 -14 4 -12 3 -12 -5 -1 -6 8 -12 9
-16 3 -3 -6 0 -16 7 -24 21 -22 8 -86 -15 -72 -7 4 -8 2 -4 -4 4 -6 13 -9 20
-6 13 5 16 -22 3 -43 -5 -7 0 -10 15 -6 19 4 20 3 8 -6 -13 -10 -13 -13 0 -24
19 -15 18 -66 -1 -78 -11 -8 -10 -9 5 -7 10 2 21 -3 24 -11 3 -9 0 -11 -8 -6
-9 5 -11 4 -6 -4 4 -6 11 -9 16 -6 5 3 15 -3 22 -13 8 -11 26 -17 46 -17 19 0
31 -4 28 -11 -2 -6 2 -11 10 -11 7 0 11 4 8 9 -8 13 1 9 24 -10 11 -9 29 -23
41 -31 16 -12 18 -18 8 -30 -10 -12 -9 -14 7 -8 18 7 18 6 1 -19 -16 -25 -16
-27 -1 -21 13 5 15 3 7 -10 -6 -12 -5 -21 7 -30 12 -9 13 -12 4 -13 -10 0 -10
-4 2 -15 8 -9 13 -22 10 -30 -4 -8 -1 -15 5 -15 6 0 11 -6 11 -14 0 -9 8 -13
23 -10 12 2 16 2 10 -2 -20 -9 -15 -23 6 -19 25 5 43 -17 44 -53 0 -15 2 -21
4 -14 8 21 21 13 19 -12 -2 -19 1 -23 18 -19 17 4 18 3 6 -6 -10 -7 -11 -11
-2 -11 6 0 12 -7 12 -16 0 -8 -4 -13 -8 -10 -5 3 -9 -1 -9 -9 0 -8 4 -12 9 -9
4 3 8 0 8 -6 0 -6 4 -8 10 -5 5 3 10 -3 10 -14 0 -12 5 -21 11 -21 5 0 7 4 4
10 -3 6 1 7 10 4 12 -5 13 -9 4 -20 -7 -8 -9 -17 -5 -21 3 -3 6 -1 6 5 0 7 7
12 15 12 8 0 15 -4 15 -9 0 -5 7 -12 16 -15 8 -3 13 -2 10 3 -3 5 1 12 10 15
12 5 14 1 9 -17 -3 -12 -3 -17 2 -12 10 13 23 13 42 1 8 -5 12 -5 9 0 -3 5 0
15 8 22 8 7 14 8 14 2 0 -5 5 -10 11 -10 5 0 7 5 3 11 -5 8 1 10 20 7 14 -3
26 -1 26 4 0 5 5 6 10 3 6 -4 7 -12 3 -19 -4 -7 0 -3 10 7 9 11 17 14 17 8 0
-6 7 -8 15 -5 8 4 12 11 8 18 -5 8 -3 8 8 0 8 -6 22 -10 31 -9 15 3 16 0 7
-17 -11 -20 -10 -20 12 -4 26 18 43 21 34 6 -5 -9 8 -12 31 -9 4 0 11 -5 16
-13 8 -10 9 -9 4 4 -3 10 -1 20 4 23 6 4 10 0 10 -7 0 -9 3 -9 10 2 6 10 10
11 10 3 0 -7 5 -13 11 -13 5 0 8 4 5 8 -2 4 4 13 14 20 14 9 21 9 26 0 4 -7 3
-8 -4 -4 -8 5 -10 1 -5 -9 4 -13 8 -14 13 -4 5 7 6 19 2 27 -3 10 -1 13 6 8 7
-4 12 -2 12 6 0 9 3 9 8 2 10 -15 42 -25 42 -13 0 5 15 2 33 -7 43 -22 42 -21
26 -41 -11 -15 -10 -15 9 1 20 17 22 18 22 2 0 -9 5 -14 10 -11 6 3 10 1 10
-4 0 -6 5 -11 11 -11 5 0 7 6 4 13 -4 6 1 3 9 -7 9 -11 16 -15 16 -9 0 15 57
22 71 9 9 -8 10 -8 5 1 -7 13 0 16 37 16 12 0 14 3 8 11 -7 8 -1 11 20 11 22
1 28 -3 24 -15 -4 -11 -1 -10 9 3 10 14 15 15 19 4 3 -8 18 -12 38 -11 47 4
72 -5 65 -22 -3 -8 -2 -12 3 -9 5 3 12 1 16 -4 3 -6 12 -8 20 -5 8 4 13 9 11
13 -2 3 7 7 21 7 17 2 23 -2 19 -13 -3 -8 -1 -11 4 -8 6 3 10 13 10 21 0 11 7
13 27 8 15 -4 33 -7 40 -7 7 0 13 -5 13 -11 0 -6 5 -4 10 4 6 10 10 11 10 3 0
-7 9 -13 20 -13 11 0 20 -5 20 -11 0 -5 -6 -7 -13 -3 -7 4 -9 3 -4 -2 5 -5 12
-9 15 -9 4 0 13 -4 19 -8 9 -6 11 -3 6 10 -3 10 -3 15 2 11 4 -4 17 -3 28 3
14 8 18 8 13 0 -4 -7 1 -11 12 -11 12 0 22 -9 25 -22 5 -19 8 -20 23 -7 16 12
17 12 11 -3 -3 -10 -1 -20 5 -24 6 -4 8 -3 5 2 -3 6 -2 16 4 24 7 13 9 13 9 1
0 -11 4 -9 15 5 13 16 14 16 9 1 -6 -18 10 -24 21 -8 3 5 21 8 41 6 32 -3 33
-2 17 11 -15 11 -15 13 -3 14 9 0 22 -6 29 -12 11 -10 13 -10 7 0 -5 7 -1 12
9 12 10 0 13 -5 9 -12 -5 -7 -3 -8 7 -3 20 13 48 13 46 1 -1 -6 3 -10 10 -9 6
1 17 -5 25 -14 11 -14 11 -16 -1 -8 -11 6 -13 4 -8 -9 4 -10 7 -20 7 -22 0 -2
9 -4 20 -4 11 0 20 -7 20 -15 0 -8 5 -14 12 -13 6 2 17 -8 25 -22 10 -19 13
-21 13 -7 0 10 5 15 10 12 6 -4 7 -12 3 -18 -5 -8 -2 -8 9 0 8 7 18 10 21 6 4
-3 7 2 7 12 0 17 1 17 22 -1 19 -15 20 -16 9 -1 -7 9 -10 17 -5 18 53 6 74 3
74 -11 1 -13 2 -13 13 2 9 11 18 14 27 8 9 -5 19 -5 27 1 16 14 36 1 28 -18
-5 -13 -3 -14 10 -3 9 7 15 9 14 4 -4 -23 2 -45 11 -39 14 9 12 -9 -2 -24 -11
-10 -10 -12 2 -11 27 4 41 0 35 -9 -3 -5 -1 -13 5 -16 6 -4 9 -2 8 3 -3 8 5
14 15 11 20 -6 37 -5 37 2 0 5 7 9 15 9 8 0 15 -7 15 -15 0 -9 6 -12 17 -8 11
4 14 3 9 -5 -9 -15 -1 -15 26 -1 15 8 19 8 14 0 -12 -19 5 -12 26 12 11 12 16
15 12 7 -6 -12 -5 -13 7 -4 27 21 48 23 64 8 8 -9 15 -11 15 -4 0 7 5 6 14 -2
8 -7 11 -17 8 -23 -2 -5 1 -5 8 2 10 9 20 8 44 -4 17 -10 37 -18 45 -19 27 -5
36 -23 23 -45 -8 -12 -9 -18 -4 -15 6 3 12 3 15 -1 2 -5 2 -2 1 5 -2 6 1 12 6
12 6 0 10 -8 10 -17 0 -14 2 -15 9 -5 7 11 11 11 24 -2 8 -9 23 -16 32 -16 10
0 13 -5 9 -12 -6 -9 -3 -9 9 0 14 12 16 11 12 -8 -3 -18 -2 -20 10 -10 8 6 12
17 9 23 -2 8 7 12 26 13 17 1 27 -3 23 -9 -4 -6 -1 -7 6 -3 7 5 19 0 27 -10 9
-11 13 -14 10 -8 -6 12 62 13 82 1 6 -5 12 -5 12 0 0 4 5 1 11 -7 9 -13 10
-13 6 0 -2 8 -10 14 -16 12 -7 -1 -10 2 -6 8 4 6 13 7 23 2 28 -14 68 0 57 19
-9 14 48 -14 63 -31 12 -13 13 -13 6 0 -4 9 2 7 13 -5 11 -11 19 -23 16 -27
-2 -5 5 -8 17 -8 12 0 19 -4 16 -9 -4 -5 48 -10 118 -10 78 -1 127 2 131 9 3
6 11 8 16 5 5 -4 9 -1 9 5 0 6 4 9 9 6 5 -3 12 1 15 10 4 10 2 13 -6 8 -6 -4
-8 -3 -4 4 3 5 1 12 -6 14 -7 3 -5 7 6 11 9 4 15 3 13 -1 -3 -4 4 -16 15 -27
18 -19 19 -19 12 -1 -6 15 -4 17 6 11 9 -5 11 -4 6 3 -4 7 -2 13 3 13 6 1 16
2 21 3 12 1 14 15 4 24 -4 4 -4 2 -1 -4 3 -6 1 -11 -6 -11 -7 0 -21 -4 -32 -7
-16 -6 -15 -4 3 6 12 8 20 17 16 21 -4 3 4 4 16 2 13 -3 28 -10 32 -17 6 -9 8
-7 4 7 -8 30 6 46 24 27 13 -14 12 -15 -3 -9 -10 4 -16 3 -12 -2 6 -10 45 -11
45 -1 0 3 -6 12 -12 20 -7 8 -4 7 8 -3 18 -15 21 -15 36 -1 16 16 43 11 33 -6
-3 -4 2 -11 11 -14 8 -3 12 -2 9 4 -3 5 -1 18 5 27 9 14 10 14 7 2 -3 -9 -2
-22 3 -29 6 -9 10 -7 15 9 5 18 10 19 28 10 21 -10 21 -9 3 5 -10 9 -23 13
-27 10 -5 -3 -9 0 -9 6 0 5 13 9 29 8 16 -1 28 -5 26 -8 -2 -3 6 -12 18 -20
20 -12 21 -12 9 3 -18 21 -7 37 20 32 12 -3 26 1 31 8 6 8 7 4 4 -11 -3 -12
-1 -20 4 -16 5 3 9 12 9 20 0 8 5 14 11 14 6 0 9 -9 6 -19 -3 -14 -1 -18 10
-14 8 3 12 12 8 21 -3 9 -3 13 1 9 4 -4 14 -1 22 6 11 8 14 8 9 0 -4 -6 -3
-14 3 -18 5 -3 10 1 10 9 0 8 5 18 12 22 6 4 8 3 5 -3 -4 -6 3 -13 15 -16 29
-8 62 24 45 43 -7 7 -7 10 -1 7 6 -3 25 3 42 14 18 10 40 19 50 20 14 0 14 2
-2 8 -19 7 -19 8 3 14 16 4 22 11 18 21 -4 10 -1 13 9 9 9 -3 12 0 9 9 -3 8 1
21 9 28 9 7 13 16 10 21 -3 5 -2 8 3 7 13 -4 53 26 53 39 0 7 8 13 18 13 9 0
24 5 32 11 12 9 11 10 -5 4 -15 -4 -17 -3 -9 5 6 6 20 12 31 13 11 0 20 7 20
13 0 7 -4 12 -8 11 -6 -2 -9 3 -9 19 0 4 12 -1 26 -11 15 -9 23 -12 20 -6 -4
6 0 11 9 11 9 0 13 -4 10 -10 -3 -5 1 -10 10 -10 9 0 13 4 10 10 -4 6 1 7 11
3 11 -4 13 -8 6 -11 -23 -7 -12 -19 21 -20 54 -2 67 -5 67 -15 0 -5 -8 -6 -17
-2 -31 12 -53 14 -53 5 0 -9 9 -10 72 -12 25 0 35 -4 31 -12 -4 -6 1 -5 10 3
14 11 17 11 17 0 1 -8 8 -3 16 11 8 14 13 18 11 9 -3 -9 1 -16 10 -16 9 0 13
7 10 19 -5 16 -3 17 9 7 11 -9 14 -8 14 2 0 11 2 11 10 -1 5 -8 10 -10 10 -5
0 6 26 10 65 9 51 -1 65 2 65 14 0 9 6 12 16 8 13 -5 14 -3 6 6 -8 10 -3 13
21 13 23 0 32 4 31 16 -1 9 5 16 12 16 7 0 10 -5 7 -11 -4 -6 1 -5 10 3 9 7
17 18 17 23 0 5 6 16 14 23 10 10 16 11 25 2 7 -7 11 -7 11 -1 0 6 15 10 34 9
25 -2 33 2 29 12 -4 9 0 11 13 6 13 -5 16 -3 12 9 -5 11 0 14 20 11 18 -3 23
-2 14 5 -10 7 -9 12 4 23 11 9 15 9 10 2 -5 -9 -2 -11 9 -7 11 5 13 10 6 17
-7 7 -2 16 14 28 13 11 27 19 31 19 4 0 0 -6 -11 -13 -14 -11 -15 -16 -5 -22
9 -5 11 -4 6 3 -7 11 6 17 27 13 5 -1 6 3 3 8 -3 5 1 14 9 21 8 7 15 19 15 26
0 8 8 14 18 14 13 0 14 2 3 9 -9 6 -10 11 -2 15 6 4 11 4 11 0 0 -3 7 -1 15 6
9 7 14 19 11 26 -3 9 1 11 12 7 14 -6 15 -4 4 9 -11 14 -8 18 18 29 25 12 27
15 12 21 -16 6 -16 7 0 7 12 1 15 6 11 18 -4 10 -2 14 4 10 11 -7 11 22 -1 42
-5 8 -3 17 5 22 8 5 9 9 4 9 -6 0 -11 11 -11 25 0 20 4 24 21 20 11 -3 14 -2
8 1 -18 8 -16 27 2 20 9 -3 15 0 15 9 0 8 8 12 20 10 16 -3 18 -1 11 14 -6 10
-6 23 -1 31 5 8 7 18 4 22 -3 4 0 16 5 26 7 13 6 23 -2 32 -7 7 -7 10 -1 7 6
-3 11 0 11 8 0 8 -4 12 -9 9 -4 -3 -13 7 -18 21 -6 17 -15 24 -22 19 -10 -6
-11 -4 0 7 14 15 16 33 3 24 -17 -10 -22 13 -7 28 19 19 8 31 -13 14 -14 -11
-14 -10 -2 5 7 10 18 15 24 11 7 -4 8 0 4 11 -6 14 -3 17 9 12 15 -6 15 -4 3
10 -11 14 -10 16 11 12 20 -2 24 1 22 16 -2 10 1 15 6 12 11 -7 24 19 14 28
-9 10 -10 46 0 46 5 0 6 5 2 12 -10 16 -11 68 -1 68 4 0 7 -5 7 -12 0 -6 3 -8
6 -5 4 4 2 13 -5 21 -9 11 -8 15 5 20 12 5 14 9 5 20 -8 10 -6 20 10 40 11 14
24 24 28 21 5 -2 8 3 8 13 0 36 3 43 16 36 8 -5 8 -2 -2 9 -12 15 -11 17 5 17
15 0 16 2 5 9 -8 5 -9 11 -3 15 6 4 16 -2 22 -11 7 -12 10 -13 7 -3 -2 8 3 24
12 34 9 11 11 16 4 13 -6 -4 -20 8 -32 29 -12 19 -17 32 -11 29 5 -3 10 -2 10
4 0 5 -5 11 -12 13 -7 3 -5 7 6 11 9 4 15 3 11 -2 -3 -5 -1 -12 4 -15 10 -7 9
13 -2 31 -4 6 -2 15 4 19 8 5 9 3 4 -6 -5 -9 -4 -11 4 -6 6 4 9 12 5 17 -3 5
0 16 6 24 7 8 9 15 5 15 -4 0 -2 6 4 13 6 8 8 17 4 20 -10 11 12 8 25 -3 9 -7
9 -7 2 2 -14 16 -13 31 2 22 6 -4 8 -3 5 3 -10 15 20 142 38 159 12 12 13 20
5 29 -8 9 -8 15 0 20 7 4 6 13 -2 28 -10 19 -9 20 3 10 12 -10 15 -8 15 7 0
10 -3 17 -6 15 -3 -2 -6 7 -6 20 0 13 4 21 8 19 5 -3 5 -11 1 -17 -4 -7 1 -6
11 2 12 10 14 17 6 25 -14 14 -13 29 2 20 7 -5 8 -3 2 7 -13 22 -13 38 0 33 7
-3 19 3 27 13 13 16 12 17 -3 4 -12 -9 -18 -10 -18 -2 0 6 7 14 15 17 12 5 13
10 4 20 -8 10 -6 12 10 9 19 -3 20 -1 10 17 -8 15 -8 19 0 14 7 -5 14 4 17 23
4 17 12 31 18 31 6 0 4 5 -4 10 -13 9 -13 10 0 10 13 0 13 1 0 10 -13 8 -12
10 3 10 14 0 17 5 12 23 -7 22 -7 22 9 2 14 -19 15 -18 6 13 -5 20 -5 30 1 27
5 -4 9 1 9 10 0 10 5 13 12 9 8 -5 9 -2 4 11 -5 15 -4 16 9 5 13 -11 14 -10 9
4 -4 10 -1 16 7 16 10 0 10 3 1 12 -8 8 -8 16 0 32 6 12 11 38 9 59 -1 25 2
36 9 32 5 -3 10 1 10 9 0 9 6 16 13 16 8 0 7 4 -3 10 -12 8 -12 10 -1 10 8 0
12 3 8 6 -3 4 1 13 9 22 11 11 12 17 4 22 -8 5 -8 9 2 13 10 3 14 19 13 46 -1
23 3 41 7 41 5 0 6 5 3 10 -3 6 1 10 11 10 11 0 15 6 11 20 -3 11 0 23 5 27 7
4 8 1 3 -7 -5 -8 -4 -11 3 -7 5 4 8 16 5 27 -3 12 0 20 7 20 7 0 10 6 7 14 -3
8 -1 16 5 18 14 5 17 78 3 78 -5 0 -3 5 5 10 8 5 10 10 3 10 -6 0 -10 8 -9 18
2 9 -1 20 -5 23 -5 3 -10 17 -11 31 -1 15 -6 24 -10 22 -4 -3 -8 2 -8 10 0 9
-4 16 -9 16 -5 0 -7 16 -5 35 2 24 -1 33 -8 29 -8 -5 -9 -1 -5 10 4 10 1 24
-8 33 -8 8 -13 18 -10 23 3 5 -1 11 -7 13 -9 4 -10 8 -2 14 18 13 13 43 -8 43
-18 0 -24 11 -11 24 10 9 12 57 3 51 -4 -3 -10 6 -12 20 -3 14 -1 25 4 25 5 0
6 5 3 10 -3 6 1 10 9 10 9 0 16 5 16 11 0 5 -5 7 -12 3 -8 -5 -9 -2 -5 9 3 10
2 17 -4 17 -6 0 -7 5 -4 10 4 6 11 8 16 5 5 -3 6 1 3 9 -3 9 -10 16 -15 16 -5
0 -9 5 -9 11 0 5 6 7 13 3 6 -4 3 2 -7 14 -11 12 -16 22 -11 22 4 0 2 7 -5 15
-8 9 -9 15 -2 15 6 0 9 9 7 20 -4 22 22 60 41 60 6 0 17 7 24 15 11 13 9 15
-11 12 -31 -5 -43 10 -47 56 -1 28 1 36 10 31 10 -5 10 -4 1 6 -8 9 -9 20 -2
39 6 14 10 27 10 29 -4 13 1 22 10 16 8 -4 8 0 0 15 -8 14 -8 21 -1 21 5 0 10
8 10 18 0 18 20 80 33 99 4 6 4 19 0 30 -3 10 -3 15 2 11 4 -4 14 -3 22 3 11
10 11 15 1 27 -10 13 -10 14 0 8 6 -4 12 -3 12 2 0 4 17 28 38 52 20 24 30 40
23 35 -8 -5 -5 6 8 23 12 18 27 32 32 32 6 0 7 6 3 13 -5 7 -1 7 12 -3 10 -8
16 -10 12 -6 -4 5 4 22 17 38 14 16 25 36 25 45 0 10 6 13 17 9 10 -4 14 -4
10 0 -4 4 -2 14 5 21 9 11 9 17 -3 24 -12 8 -11 12 5 24 14 11 16 15 5 15 -10
1 -9 3 4 11 9 5 17 19 17 31 0 13 5 18 14 15 11 -5 13 0 6 22 -5 18 -3 33 6
46 10 13 14 15 14 5 0 -8 7 -4 17 10 10 14 18 32 18 40 0 10 10 15 32 14 24 0
30 3 22 12 -8 9 -4 12 15 10 16 -2 23 1 19 7 -4 6 0 8 10 4 10 -4 16 -2 14 6
-1 7 4 11 11 10 6 -2 12 2 12 8 0 5 4 8 9 5 5 -3 15 2 22 11 10 12 10 14 2 9
-20 -12 -15 1 9 24 17 16 18 20 6 20 -9 0 -18 11 -20 25 -3 13 -2 22 2 20 5
-3 11 2 14 11 9 23 8 26 -6 18 -7 -4 -4 3 7 16 11 13 14 20 8 16 -9 -5 -11 -2
-7 8 6 14 17 20 35 18 4 -1 6 12 5 27 -1 20 2 27 11 24 7 -3 13 -1 13 5 0 6
-6 13 -12 15 -8 3 -5 6 6 6 13 1 17 6 13 20 -3 13 1 21 12 24 14 4 14 5 -1 6
-11 1 -15 6 -12 16 4 8 10 12 15 9 5 -3 9 0 9 6 0 7 7 10 15 7 8 -4 17 -1 21
5 4 6 3 8 -4 4 -6 -3 -13 -2 -17 4 -3 5 2 10 13 10 10 0 28 11 40 25 12 14 18
25 12 25 -5 0 -14 -9 -20 -21 -7 -11 -14 -18 -17 -15 -4 3 1 14 10 23 8 10 16
23 17 28 1 6 4 12 7 15 4 3 3 0 -1 -7 -4 -8 1 -11 13 -10 11 0 17 5 15 9 -3 4
0 8 6 8 6 0 4 10 -6 25 -9 14 -20 22 -25 19 -5 -3 -9 2 -9 11 0 10 5 13 13 9
9 -6 9 -5 0 7 -10 13 -10 19 3 35 8 10 12 12 8 4 -4 -9 -3 -12 2 -7 9 9 11 14
13 48 1 13 5 18 14 13 7 -5 6 0 -3 11 -9 11 -10 16 -2 11 6 -4 12 -2 12 3 0 6
-4 11 -10 11 -5 0 -10 5 -10 11 0 5 6 7 13 4 6 -4 3 1 -7 9 -20 16 -20 16 0
17 10 0 13 3 7 6 -7 2 -13 9 -13 14 0 6 4 8 9 4 5 -3 12 -1 16 5 4 6 11 7 17
4 7 -4 8 -2 4 4 -4 7 -1 12 6 12 10 0 9 3 -2 9 -8 6 -18 7 -22 5 -7 -5 -10 3
-7 22 0 4 -5 10 -12 14 -8 6 -3 13 17 24 16 8 25 15 19 16 -5 0 -3 5 5 10 11
7 12 10 2 10 -10 0 -9 4 3 16 15 16 14 18 -21 33 -24 11 -34 20 -27 24 7 4 10
14 7 21 -3 8 0 17 7 22 8 5 10 3 4 -6 -5 -8 -3 -11 6 -8 8 3 13 11 11 18 -2 7
3 10 11 7 10 -4 13 2 11 20 -1 14 -5 27 -8 30 -3 3 0 11 7 19 7 7 18 20 25 29
15 17 37 21 26 3 -4 -7 -3 -8 5 -4 6 4 9 12 6 17 -4 5 1 9 9 9 8 0 17 4 20 9
3 5 -2 8 -12 7 -10 0 -16 6 -16 17 1 9 -2 17 -7 17 -5 0 -6 8 -2 18 3 9 3 14
-2 10 -10 -9 -35 16 -35 36 0 8 8 20 18 26 15 10 14 11 -6 6 -18 -3 -21 -2
-12 9 11 14 4 45 -12 45 -5 0 -6 6 -1 13 18 29 13 43 -17 41 -17 -1 -27 2 -24
7 3 5 -1 9 -8 9 -8 1 -7 5 5 14 18 14 18 15 0 28 -19 13 -29 98 -12 98 5 0 5
7 2 17 -5 12 -3 14 7 8 10 -6 12 -4 7 8 -4 11 -1 17 9 17 8 0 12 5 9 10 -3 6
1 17 10 26 9 9 14 23 11 31 -3 8 -2 12 3 9 5 -3 9 6 9 20 0 13 7 33 17 44 21
23 27 88 11 109 -8 12 -8 13 2 7 9 -5 13 -3 11 5 -3 28 1 39 17 39 10 0 15 8
13 23 -3 30 11 58 24 50 6 -3 7 -1 3 6 -6 9 -11 9 -24 -1 -14 -11 -15 -10 -9
5 4 10 7 21 7 23 0 3 6 2 13 -2 8 -5 8 -2 -2 9 -9 11 -10 17 -2 17 6 0 11 5
11 11 0 5 -5 7 -11 3 -6 -3 -3 6 7 22 18 28 18 29 0 14 -18 -14 -19 -14 -7 8
6 12 9 22 5 22 -3 0 0 8 7 17 8 9 9 14 3 10 -7 -4 -17 0 -24 8 -11 13 -10 14
4 9 12 -5 15 -2 10 10 -3 9 -9 14 -13 11 -4 -2 -8 2 -8 9 0 8 7 12 16 9 13 -4
13 -2 -1 10 -10 8 -15 17 -11 20 3 4 -1 7 -10 7 -10 0 -17 7 -17 16 0 8 5 12
11 9 6 -4 5 3 -3 14 -11 18 -11 23 2 31 10 6 11 10 3 10 -13 0 -12 54 0 67 4
3 2 14 -4 24 -6 13 -6 19 1 19 5 0 10 7 10 15 0 7 8 19 18 24 9 6 14 11 9 11
-4 0 -1 10 8 23 8 13 16 35 17 50 1 15 6 27 10 27 4 0 11 19 14 41 4 23 15 49
25 57 14 12 15 18 6 24 -9 6 -9 8 1 8 6 0 12 9 12 20 0 11 5 20 11 20 5 0 8 4
4 9 -3 6 0 13 7 18 20 12 39 53 32 65 -4 7 -3 8 4 4 13 -8 31 23 25 42 -3 6 0
12 6 12 6 0 11 9 11 21 0 11 4 18 9 15 5 -3 9 0 8 7 -1 36 4 57 13 52 10 -6
12 1 13 43 0 12 3 22 6 22 4 0 8 8 9 18 3 29 7 47 13 57 4 6 5 18 4 27 -2 9 4
19 12 22 8 3 11 10 8 16 -3 5 -2 10 3 10 6 0 13 7 16 16 3 9 2 12 -4 9 -6 -4
-2 9 9 28 11 19 17 37 14 40 -8 8 20 80 37 97 12 11 12 12 1 5 -12 -9 -12 -7
-1 12 8 12 18 19 22 17 19 -12 6 36 -14 50 -15 11 -18 16 -8 16 12 1 11 3 -2
11 -10 5 -18 15 -18 20 0 6 4 8 9 5 4 -3 6 10 4 29 -2 22 1 35 8 35 8 0 8 4
-1 15 -7 8 -10 22 -6 30 3 8 0 15 -7 15 -8 0 -6 4 3 10 12 8 12 10 -5 10 -17
0 -17 2 -5 10 12 8 10 10 -10 10 l-25 1 24 10 c19 8 21 12 11 24 -7 8 -10 26
-7 41 2 14 -2 31 -10 40 -8 8 -10 14 -4 14 6 0 11 7 11 15 0 8 -6 15 -12 15
-9 0 -8 4 2 10 13 9 13 10 0 10 -13 0 -13 1 0 10 10 6 11 10 3 10 -7 0 -13 5
-13 11 0 6 7 8 17 5 15 -6 16 -5 1 11 -13 15 -13 22 -2 48 7 17 13 24 14 16 0
-8 3 -11 6 -8 4 4 1 13 -6 22 -7 8 -9 15 -5 15 4 0 2 6 -4 14 -9 11 -9 15 1
19 7 3 8 6 2 6 -6 1 -9 17 -8 36 2 21 -1 33 -6 30 -6 -4 -10 -1 -10 4 0 6 5
11 11 11 8 0 8 5 -1 15 -10 12 -10 18 0 30 10 12 10 15 -1 15 -12 0 -12 2 0 9
11 7 11 9 0 14 -12 5 -12 7 -1 15 11 7 11 10 -3 15 -10 5 -14 3 -9 -5 4 -7 3
-8 -4 -4 -7 4 -12 14 -12 22 0 9 -5 12 -11 8 -8 -5 -10 1 -7 20 4 21 3 24 -8
15 -11 -9 -14 -7 -14 10 0 12 4 20 8 17 5 -3 9 1 9 9 0 18 -9 19 -26 3 -11
-11 -11 -9 0 9 7 12 17 19 23 16 5 -3 6 -1 2 6 -4 6 -12 9 -17 6 -5 -4 -9 -3
-10 2 0 4 -3 17 -5 28 -3 11 -5 38 -5 60 0 22 -5 45 -10 51 -12 15 5 28 24 19
6 -4 5 -1 -3 7 -18 15 -18 140 -1 146 6 2 11 8 11 13 0 6 -6 7 -12 3 -10 -6
-10 -5 -1 7 7 9 11 25 8 37 -2 12 1 22 8 22 8 0 8 3 0 11 -7 7 -8 21 -3 39 5
17 4 32 -3 39 -7 7 -5 12 7 17 12 5 14 9 6 14 -9 6 -9 13 0 30 8 15 8 20 1 16
-16 -10 -13 6 6 34 14 21 14 23 1 12 -13 -10 -17 -10 -21 1 -3 8 -1 20 5 28 8
11 9 10 4 -4 -3 -10 -2 -16 2 -13 5 3 9 20 10 39 1 26 -4 37 -21 46 -19 10
-19 11 -2 6 19 -5 19 -4 3 9 -10 7 -18 18 -18 25 0 6 -4 11 -10 11 -5 0 -10 7
-10 16 0 11 -5 14 -17 10 -10 -4 -14 -4 -11 0 4 4 3 15 -3 25 -7 15 -6 17 6
13 27 -11 16 5 -15 21 -17 9 -28 20 -25 25 4 6 1 10 -5 10 -6 0 -8 4 -5 10 3
6 -1 7 -9 4 -12 -5 -16 0 -16 20 0 16 -6 26 -14 26 -10 0 -12 7 -8 22 4 15 2
19 -7 13 -10 -6 -11 -3 -2 12 6 11 7 24 3 28 -4 3 -7 12 -7 18 -1 7 -7 11 -14
9 -8 -2 -5 8 7 26 20 27 20 28 1 29 -10 1 -21 -3 -24 -8z m17 -6 c-6 -2 -9
-10 -6 -15 4 -7 2 -8 -5 -4 -13 9 -5 26 12 25 9 0 8 -2 -1 -6z m196 -418 c-3
-3 -9 2 -12 12 -6 14 -5 15 5 6 7 -7 10 -15 7 -18z m92 -1440 c0 -5 -5 -3 -10
5 -5 8 -10 20 -10 25 0 6 5 3 10 -5 5 -8 10 -19 10 -25z m-9300 -909 c0 -3 -4
-8 -10 -11 -5 -3 -10 -1 -10 4 0 6 5 11 10 11 6 0 10 -2 10 -4z m5335 -326 c3
-5 -1 -10 -10 -10 -9 0 -13 5 -10 10 3 6 8 10 10 10 2 0 7 -4 10 -10z m-5281
-71 c-3 -5 -10 -7 -15 -3 -5 3 -7 10 -3 15 3 5 10 7 15 3 5 -3 7 -10 3 -15z
m46 -189 c0 -5 -2 -10 -4 -10 -3 0 -8 5 -11 10 -3 6 -1 10 4 10 6 0 11 -4 11
-10z m8700 -660 c0 -5 -2 -10 -4 -10 -3 0 -8 5 -11 10 -3 6 -1 10 4 10 6 0 11
-4 11 -10z m-410 -1504 c0 -3 -4 -8 -10 -11 -5 -3 -10 -1 -10 4 0 6 5 11 10
11 6 0 10 -2 10 -4z m-150 -290 c0 -2 -8 -10 -17 -17 -16 -13 -17 -12 -4 4 13
16 21 21 21 13z m-7260 -76 c0 -5 -2 -10 -4 -10 -3 0 -8 5 -11 10 -3 6 -1 10
4 10 6 0 11 -4 11 -10z m54 -3 c3 3 6 1 6 -5 0 -16 -12 -15 -36 4 -18 15 -18
15 2 5 12 -6 24 -7 28 -4z m261 -1786 c-6 -5 -25 10 -25 20 0 5 6 4 14 -3 8
-7 12 -15 11 -17z m6357 -955 c-3 -6 -7 -5 -10 2 -2 7 -7 10 -10 8 -4 -2 -7 7
-7 20 l0 24 17 -22 c9 -12 14 -27 10 -32z m-5806 -41 c9 -8 11 -15 6 -15 -5 0
-15 7 -22 15 -7 8 -9 15 -6 15 4 0 14 -7 22 -15z m5113 -1228 c8 -10 7 -14 -2
-14 -8 0 -14 6 -14 14 0 7 1 13 2 13 2 0 8 -6 14 -13z m-4585 -36 c-9 -9 -34
-9 -34 -1 0 5 9 8 20 7 10 -1 17 -3 14 -6z m4510 1 c2 -4 -4 -8 -14 -8 -10 0
-16 4 -14 8 3 4 9 8 14 8 5 0 11 -4 14 -8z m-3247 -94 c-3 -8 -6 -5 -6 6 -1
11 2 17 5 13 3 -3 4 -12 1 -19z m743 -172 c0 -3 -4 -8 -10 -11 -5 -3 -10 -1
-10 4 0 6 5 11 10 11 6 0 10 -2 10 -4z m1756 -31 c3 -17 -12 -20 -21 -5 -3 6
-1 10 5 10 6 0 8 6 4 13 -4 6 -3 8 1 4 5 -4 10 -14 11 -22z"/>
<path d="M9855 10700 c-3 -5 -1 -10 4 -10 6 0 11 5 11 10 0 6 -2 10 -4 10 -3
0 -8 -4 -11 -10z"/>
<path d="M9876 10481 c-3 -5 1 -11 9 -14 9 -4 12 -1 8 9 -6 16 -10 17 -17 5z"/>
<path d="M957 10303 c-4 -3 -7 -11 -7 -17 0 -6 5 -5 12 2 6 6 9 14 7 17 -3 3
-9 2 -12 -2z"/>
<path d="M1190 10201 c0 -6 4 -12 8 -15 5 -3 9 1 9 9 0 8 -4 15 -9 15 -4 0 -8
-4 -8 -9z"/>
<path d="M1915 9620 c10 -11 20 -20 23 -20 3 0 -3 9 -13 20 -10 11 -20 20 -23
20 -3 0 3 -9 13 -20z"/>
<path d="M10045 9180 c-3 -5 -1 -10 4 -10 6 0 11 5 11 10 0 6 -2 10 -4 10 -3
0 -8 -4 -11 -10z"/>
<path d="M3790 7876 c0 -2 7 -7 16 -10 8 -3 12 -2 9 4 -6 10 -25 14 -25 6z"/>
<path d="M766 7637 c-16 -12 -16 -13 2 -13 10 0 19 6 19 13 0 7 -1 13 -2 13
-1 0 -9 -6 -19 -13z"/>
<path d="M3971 7634 c0 -11 3 -14 6 -6 3 7 2 16 -1 19 -3 4 -6 -2 -5 -13z"/>
<path d="M5626 7573 c-6 -14 -5 -15 5 -6 7 7 10 15 7 18 -3 3 -9 -2 -12 -12z"/>
<path d="M9686 6413 c-6 -14 -5 -15 5 -6 7 7 10 15 7 18 -3 3 -9 -2 -12 -12z"/>
<path d="M1285 5571 c-3 -5 -2 -12 3 -15 5 -3 9 1 9 9 0 17 -3 19 -12 6z"/>
<path d="M1279 5523 c-13 -16 -12 -17 4 -4 9 7 17 15 17 17 0 8 -8 3 -21 -13z"/>
<path d="M1314 5406 c1 -8 5 -18 8 -22 4 -3 5 1 4 10 -1 8 -5 18 -8 22 -4 3
-5 -1 -4 -10z"/>
<path d="M1953 3165 c0 -8 4 -12 9 -9 5 3 6 10 3 15 -9 13 -12 11 -12 -6z"/>
<path d="M8725 3020 c-3 -5 -1 -10 4 -10 6 0 11 5 11 10 0 6 -2 10 -4 10 -3 0
-8 -4 -11 -10z"/>
<path d="M2390 2396 c0 -2 7 -7 16 -10 8 -3 12 -2 9 4 -6 10 -25 14 -25 6z"/>
<path d="M8457 2249 c7 -7 15 -10 18 -7 3 3 -2 9 -12 12 -14 6 -15 5 -6 -5z"/>
<path d="M8450 2219 c0 -5 5 -7 10 -4 6 3 10 8 10 11 0 2 -4 4 -10 4 -5 0 -10
-5 -10 -11z"/>
<path d="M8390 1981 c0 -6 4 -12 8 -15 5 -3 9 1 9 9 0 8 -4 15 -9 15 -4 0 -8
-4 -8 -9z"/>
<path d="M8345 1930 c-3 -6 1 -7 9 -4 18 7 21 14 7 14 -6 0 -13 -4 -16 -10z"/>
<path d="M2319 1608 c-6 -21 -5 -38 1 -38 5 0 8 9 7 20 -1 17 -5 26 -8 18z"/>
<path d="M8235 1580 c-3 -6 1 -7 9 -4 18 7 21 14 7 14 -6 0 -13 -4 -16 -10z"/>
<path d="M2216 1478 c3 -5 10 -6 15 -3 13 9 11 12 -6 12 -8 0 -12 -4 -9 -9z"/>
<path d="M8287 1413 c3 -7 6 -13 8 -13 2 0 5 6 8 13 3 8 -1 14 -8 14 -7 0 -11
-6 -8 -14z"/>
<path d="M8270 1376 c0 -2 8 -10 18 -17 15 -13 16 -12 3 4 -13 16 -21 21 -21
13z"/>
<path d="M8205 1280 c3 -5 8 -10 11 -10 2 0 4 5 4 10 0 6 -5 10 -11 10 -5 0
-7 -4 -4 -10z"/>
<path d="M2749 1217 c6 -8 7 -18 3 -22 -4 -5 -1 -5 6 -1 10 6 10 11 1 22 -6 8
-14 14 -16 14 -3 0 0 -6 6 -13z"/>
<path d="M2876 971 c-3 -5 1 -11 9 -14 9 -4 12 -1 8 9 -6 16 -10 17 -17 5z"/>
<path d="M4197 709 c7 -7 15 -10 18 -7 3 3 -2 9 -12 12 -14 6 -15 5 -6 -5z"/>
<path d="M4627 669 c7 -7 15 -10 18 -7 3 3 -2 9 -12 12 -14 6 -15 5 -6 -5z"/>
<path d="M4650 641 c0 -6 4 -13 10 -16 6 -3 7 1 4 9 -7 18 -14 21 -14 7z"/>
<path d="M7070 615 c-11 -13 -10 -14 4 -9 9 3 16 10 16 15 0 13 -6 11 -20 -6z"/>
<path d="M6985 509 c-4 -5 -4 -13 -1 -16 3 -4 6 0 6 8 0 11 2 11 10 -1 6 -9
10 -10 10 -3 0 17 -17 25 -25 12z"/>
<path d="M6957 493 c-4 -3 -7 -11 -7 -17 0 -6 5 -5 12 2 6 6 9 14 7 17 -3 3
-9 2 -12 -2z"/>
<path d="M6704 422 c4 -3 14 -7 22 -8 9 -1 13 0 10 4 -4 3 -14 7 -22 8 -9 1
-13 0 -10 -4z"/>
<path d="M6545 389 c-11 -17 1 -21 15 -4 8 9 8 15 2 15 -6 0 -14 -5 -17 -11z"/>
<path d="M5930 342 c0 -4 10 -9 22 -9 18 -2 20 0 8 7 -18 12 -30 13 -30 2z"/>
<path d="M5770 320 c0 -5 5 -10 10 -10 6 0 10 5 10 10 0 6 -4 10 -10 10 -5 0
-10 -4 -10 -10z"/>
</g>
</svg>
